<?xml version="1.0" encoding="UTF-8" standalone="no"?>
<!-- Created with Inkscape (http://www.inkscape.org/) -->
<svg width="48" height="48" viewBox="0 0 12.7 12.7" version="1.1" id="svg1" xml:space="preserve" sodipodi:docname="icon.svg" inkscape:version="1.4 (e7c3feb100, 2024-10-09)" xmlns:inkscape="http://www.inkscape.org/namespaces/inkscape" xmlns:sodipodi="http://sodipodi.sourceforge.net/DTD/sodipodi-0.dtd" xmlns:xlink="http://www.w3.org/1999/xlink" xmlns="http://www.w3.org/2000/svg" xmlns:svg="http://www.w3.org/2000/svg"><sodipodi:namedview id="namedview1" pagecolor="#ffffff" bordercolor="#000000" borderopacity="0.25" inkscape:showpageshadow="2" inkscape:pageopacity="0.0" inkscape:pagecheckerboard="0" inkscape:deskcolor="#d1d1d1" inkscape:document-units="px" inkscape:zoom="11.973772" inkscape:cx="11.73398" inkscape:cy="24.511909" inkscape:window-width="1920" inkscape:window-height="1018" inkscape:window-x="0" inkscape:window-y="0" inkscape:window-maximized="1" inkscape:current-layer="svg1"><inkscape:page x="0" y="0" width="12.7" height="12.7" id="page3" margin="0" bleed="0"/></sodipodi:namedview><defs id="defs1"><color-profile name="sRGB-elle-V2-g10.icc" xlink:href="file:///usr/share/color/icc/krita/sRGB-elle-V2-g10.icc" id="color-profile3"/><color-profile name="Built-in-display" xlink:href="../../../../.local/share/icc/edid-d3090bfe21f1b2e48aa69d3ad501fc2b.icc" id="color-profile4"/><inkscape:path-effect effect="fillet_chamfer" id="path-effect29" is_visible="true" lpeversion="1" nodesatellites_param="F,0,0,1,0,1,0,1 @ F,0,0,1,0,1,0,1 @ F,0,0,1,0,1,0,1 @ F,0,0,1,0,1,0,1" radius="0" unit="px" method="auto" mode="F" chamfer_steps="1" flexible="false" use_knot_distance="true" apply_no_radius="true" apply_with_radius="true" only_selected="false" hide_knots="false"/><inkscape:path-effect effect="fillet_chamfer" id="path-effect29-1" is_visible="true" lpeversion="1" nodesatellites_param="F,0,0,1,0,1,0,1 @ F,0,0,1,0,1,0,1 @ F,0,0,1,0,1,0,1 @ F,0,0,1,0,1,0,1" radius="0" unit="px" method="auto" mode="F" chamfer_steps="1" flexible="false" use_knot_distance="true" apply_no_radius="true" apply_with_radius="true" only_selected="false" hide_knots="false"/><inkscape:path-effect effect="fillet_chamfer" id="path-effect4" is_visible="true" lpeversion="1" nodesatellites_param="F,0,1,1,0,0.26458345,0,1 @ F,0,1,1,0,0.26458345,0,1 @ F,0,1,1,0,0.26458345,0,1 @ F,0,0,1,0,0.26458345,0,1" radius="0" unit="px" method="auto" mode="F" chamfer_steps="1" flexible="false" use_knot_distance="true" apply_no_radius="true" apply_with_radius="true" only_selected="false" hide_knots="false"/><inkscape:path-effect effect="fillet_chamfer" id="path-effect4-8" is_visible="true" lpeversion="1" nodesatellites_param="F,0,1,1,0,0.26458345,0,1 @ F,0,1,1,0,0.26458345,0,1 @ F,0,1,1,0,0.26458345,0,1 @ F,0,0,1,0,0.26458345,0,1" radius="0" unit="px" method="auto" mode="F" chamfer_steps="1" flexible="false" use_knot_distance="true" apply_no_radius="true" apply_with_radius="true" only_selected="false" hide_knots="false"/><inkscape:path-effect effect="fillet_chamfer" id="path-effect4-9" is_visible="true" lpeversion="1" nodesatellites_param="F,0,1,1,0,0.26458345,0,1 @ F,0,1,1,0,0.26458345,0,1 @ F,0,1,1,0,0.26458345,0,1 @ F,0,0,1,0,0.26458345,0,1" radius="0" unit="px" method="auto" mode="F" chamfer_steps="1" flexible="false" use_knot_distance="true" apply_no_radius="true" apply_with_radius="true" only_selected="false" hide_knots="false"/><inkscape:path-effect effect="fillet_chamfer" id="path-effect4-1" is_visible="true" lpeversion="1" nodesatellites_param="F,0,1,1,0,0.26458345,0,1 @ F,0,1,1,0,0.26458345,0,1 @ F,0,1,1,0,0.26458345,0,1 @ F,0,0,1,0,0.26458345,0,1" radius="0" unit="px" method="auto" mode="F" chamfer_steps="1" flexible="false" use_knot_distance="true" apply_no_radius="true" apply_with_radius="true" only_selected="false" hide_knots="false"/></defs><path id="rect109528" style="fill:#2a2a2a;fill-opacity:1;stroke:none;stroke-width:0.79375;stroke-linecap:round;stroke-linejoin:round;stroke-dasharray:none;stroke-opacity:1;paint-order:normal" transform="matrix(0,-1.9999999,1.9999999,0,3.6666667e-8,3.6666667e-8)" d="m -4.8208337,0.5291667 h 3.291667 a 1,1 45 0 1 1,1 v 3.291667 a 1,1 135 0 1 -1,1 l -3.291667,0 a 1,1 45 0 1 -1,-1 v -3.291667 a 1,1 135 0 1 1,-1 z" inkscape:path-effect="#path-effect29-1" inkscape:original-d="m -5.8208337,0.5291667 h 5.291667 v 5.291667 h -5.291667 z"/><path id="path2" style="fill:#4ebf9a;fill-opacity:1;stroke-width:2;stroke-linecap:round;stroke-linejoin:round" d="M 3.0582114,1.0583333 A 1.9999999,1.9999999 0 0 0 1.0583333,3.0582114 v 6.5835774 a 1.9999999,1.9999999 0 0 0 1.9998781,1.9998792 h 6.583577 A 1.9999999,1.9999999 0 0 0 11.641668,9.6417888 V 3.0582114 A 1.9999999,1.9999999 0 0 0 9.6417884,1.0583333 Z m 5.167e-4,0.7932333 h 6.5820273 c 0.6755956,0 1.2066456,0.5315664 1.2066456,1.2071615 v 6.5820272 c 0,0.6755957 -0.53105,1.2066457 -1.2066456,1.2066457 H 3.0587281 c -0.6755951,0 -1.2071614,-0.53105 -1.2071614,-1.2066457 V 3.0587281 c 0,-0.6755951 0.5315663,-1.2071615 1.2071614,-1.2071615 z"/><circle style="fill:#1b1b1b;fill-opacity:1;stroke:none;stroke-width:0.617873;stroke-dasharray:none;stroke-opacity:1;paint-order:normal" id="path4" cx="3.4395833" cy="8.3343754" r="0.79374999"/><rect style="fill:#1b1b1b;fill-opacity:1;stroke:none;stroke-width:2.17565;stroke-dasharray:none;stroke-opacity:1;paint-order:normal" id="rect6-9" width="7.9375" height="3.4395833" x="2.3812501" y="3.5718753"/><path id="rect6-9-9" style="fill:#1b1b1b;stroke-width:0.492686" d="m 5.2916683,5.8208332 h 4.7624987 a 0.26458345,0.26458345 45 0 1 0.264583,0.2645834 0.2645833,0.2645833 135.00003 0 1 -0.264583,0.2645832 l -4.7624987,0 A 0.26458345,0.26458345 45 0 1 5.0270849,6.0854163 0.2645833,0.2645833 135.00003 0 1 5.2916683,5.8208332 Z" inkscape:path-effect="#path-effect4" inkscape:original-d="M 5.0270849,5.8208332 H 10.31875 V 6.3499998 H 5.0270849 Z" transform="matrix(0.50000022,0,0,0.49999971,5.1593728,4.6302102)" sodipodi:nodetypes="ccccc"/><path id="rect6-9-9-7" style="fill:#1b1b1b;stroke-width:0.492686" d="m 5.2916683,5.8208332 h 4.7624987 a 0.26458345,0.26458345 45 0 1 0.264583,0.2645834 0.2645833,0.2645833 135.00003 0 1 -0.264583,0.2645832 l -4.7624987,0 A 0.26458345,0.26458345 45 0 1 5.0270849,6.0854163 0.2645833,0.2645833 135.00003 0 1 5.2916683,5.8208332 Z" inkscape:path-effect="#path-effect4-8" inkscape:original-d="M 5.0270849,5.8208332 H 10.31875 V 6.3499998 H 5.0270849 Z" transform="matrix(0.50000022,0,0,0.49999971,5.1593728,5.0711823)" sodipodi:nodetypes="ccccc"/><path id="rect6-9-9-78" style="fill:#1b1b1b;stroke-width:0.492686" d="m 5.2916683,5.8208332 h 4.7624987 a 0.26458345,0.26458345 45 0 1 0.264583,0.2645834 0.2645833,0.2645833 135.00003 0 1 -0.264583,0.2645832 l -4.7624987,0 A 0.26458345,0.26458345 45 0 1 5.0270849,6.0854163 0.2645833,0.2645833 135.00003 0 1 5.2916683,5.8208332 Z" inkscape:path-effect="#path-effect4-9" inkscape:original-d="M 5.0270849,5.8208332 H 10.31875 V 6.3499998 H 5.0270849 Z" transform="matrix(0.50000022,0,0,0.49999971,5.1593728,5.5121545)" sodipodi:nodetypes="ccccc"/><path id="rect6-9-9-9" style="fill:#1b1b1b;stroke-width:0.492686" d="m 5.2916683,5.8208332 h 4.7624987 a 0.26458345,0.26458345 45 0 1 0.264583,0.2645834 0.2645833,0.2645833 135.00003 0 1 -0.264583,0.2645832 l -4.7624987,0 A 0.26458345,0.26458345 45 0 1 5.0270849,6.0854163 0.2645833,0.2645833 135.00003 0 1 5.2916683,5.8208332 Z" inkscape:path-effect="#path-effect4-1" inkscape:original-d="M 5.0270849,5.8208332 H 10.31875 V 6.3499998 H 5.0270849 Z" transform="matrix(0.50000022,0,0,0.49999971,5.1593725,5.9531266)" sodipodi:nodetypes="ccccc"/><rect style="fill:#4ebf9a;fill-opacity:1;stroke:none;stroke-width:1.32396;stroke-dasharray:none;stroke-opacity:1;paint-order:normal" id="rect7-3" width="1.5875" height="1.5875" x="8.4666662" y="5.1593757"/><rect style="fill:#494949;fill-opacity:1;stroke:none;stroke-width:2.4769;stroke-dasharray:none;stroke-opacity:1;paint-order:normal" id="rect7" width="5.5562501" height="1.5875" x="2.6458333" y="5.1593757"/><rect style="fill:#494949;fill-opacity:1;stroke:none;stroke-width:2.33524;stroke-dasharray:none;stroke-opacity:1;paint-order:normal" id="rect7-32" width="7.4083333" height="1.0583333" x="2.6458333" y="3.8364587"/><circle style="fill:#4ebf9a;fill-opacity:1;stroke:none;stroke-width:0.411915;stroke-dasharray:none;stroke-opacity:1;paint-order:normal" id="circle4" cx="3.4395833" cy="8.3343754" r="0.52916664"/><circle style="fill:#1b1b1b;fill-opacity:1;stroke:none;stroke-width:0.617873;stroke-dasharray:none;stroke-opacity:1;paint-order:normal" id="path4-3" cx="5.2916665" cy="8.3343754" r="0.79374999"/><circle style="fill:#494949;fill-opacity:1;stroke:none;stroke-width:0.411915;stroke-dasharray:none;stroke-opacity:1;paint-order:normal" id="circle4-6" cx="5.2916665" cy="8.3343754" r="0.52916664"/></svg>